<svg xmlns="http://www.w3.org/2000/svg" viewBox="0 0 694.27 115.45"><defs><style>.cls-3{fill:#fff}</style></defs><g id="Logo"><g id="Beeldmerk" fill-rule="evenodd"><path d="M207 24.27h-13.66a8.52 8.52 0 0 0-8 6.9l-4.24 24.12h-30.7a6.43 6.43 0 0 0-6.08 5.17l-7.9 44.81a4.22 4.22 0 0 0 4.26 5.17h15.5a6.45 6.45 0 0 0 6.09-5.17l3.95-22.41h30.53a8.51 8.51 0 0 0 8-6.89l7.82-44.8a5.61 5.61 0 0 0-5.57-6.9z" fill="#fff"/><path d="M232.27 55.29h-44.35a8.53 8.53 0 0 0-8 6.9L177.49 76l-5.42 31a5.61 5.61 0 0 0 5.62 6.89h13.65a8.52 8.52 0 0 0 8-6.89l4.21-24.13h23.88a8.52 8.52 0 0 0 8-6.89l2.4-13.78a5.61 5.61 0 0 0-5.56-6.91z" fill="#ef434d"/></g><g id="Text"><path class="cls-3" d="M54.78 113.16l-.14-.62c-2.79-12-6.06-24.19-9.73-36.16-3.39-11.07-7.21-22.3-11.35-33.45l-12.38 70.23H0L19.52 2.47h18.63l.21.46c2.38 5.18 4.71 10.86 6.92 16.89S49.68 32 51.71 37.9s3.94 11.91 5.57 17.49c1.21 4.14 2.3 8 3.25 11.38l11.33-64.3h21.19L73.53 113.16z"/><path class="cls-3" d="M55.41 112.36q-4.2-18.15-9.74-36.22T33.29 39.92l-12.78 72.44H1L20.19 3.26h17.45C40 8.44 42.31 14 44.54 20.1S48.9 32.17 51 38.16 54.87 50 56.52 55.61s3 10.57 4.17 14.81L72.53 3.26H92.1l-19.24 109.1zM159 109.7l-.44.16a94.4 94.4 0 0 1-12.73 3.81 101.92 101.92 0 0 1-20.3 1.78 41.85 41.85 0 0 1-18.13-3.69 29.87 29.87 0 0 1-12.44-11c-3.09-4.84-5.1-10.94-6-18.14s-.46-15.56 1.2-25a85.48 85.48 0 0 1 8.11-24.82 68.9 68.9 0 0 1 13.36-18.1 52.7 52.7 0 0 1 17.15-11A53.24 53.24 0 0 1 148.23 0a59.1 59.1 0 0 1 11.35 1A63.13 63.13 0 0 1 168 3.22 27 27 0 0 1 173.81 6c1.42.94 2.49 1.64 3.23 2.1l.61.39-9.43 18.75-.75-.54a36.18 36.18 0 0 0-8.55-4.31 32.14 32.14 0 0 0-11-1.89 29.9 29.9 0 0 0-13.19 2.74 30.75 30.75 0 0 0-9.86 7.65 40.69 40.69 0 0 0-6.91 11.75 80.24 80.24 0 0 0-4.17 15.27c-2.26 12.82-1.92 22.35 1 28.33S122.86 95 130.6 95c1.27 0 2.69-.06 4.19-.17 1.31-.1 2.55-.24 3.7-.43"/><path class="cls-3" d="M158.28 109.1a91.28 91.28 0 0 1-12.63 3.79 100.88 100.88 0 0 1-20.14 1.76 40.8 40.8 0 0 1-17.78-3.65 28.93 28.93 0 0 1-12.12-10.75q-4.61-7.1-5.85-17.76T91 57.72a84.44 84.44 0 0 1 8-24.58 67.52 67.52 0 0 1 13.2-17.89 51.68 51.68 0 0 1 16.88-10.84A52.29 52.29 0 0 1 148.23.8a57.21 57.21 0 0 1 11.19 1 60.43 60.43 0 0 1 8.34 2.2 26.26 26.26 0 0 1 5.62 2.64c1.42.94 2.49 1.65 3.24 2.12L167.93 26a37.22 37.22 0 0 0-8.74-4.41 32.66 32.66 0 0 0-11.29-1.94 30.69 30.69 0 0 0-13.54 2.82 31.46 31.46 0 0 0-10.11 7.85 41.34 41.34 0 0 0-7 12 80.34 80.34 0 0 0-4.25 15.4q-3.45 19.57 1.08 28.82t16.52 9.26q1.93 0 4.26-.18c1.54-.12 3-.29 4.32-.53"/></g></g><path class="cls-3" d="M292.34 69.9a13.12 13.12 0 0 1-10.51 5.42C273.7 75.32 268 69.13 268 59c0-9.94 5.67-16.39 13.87-16.39a13 13 0 0 1 10.51 5.49V31.52h4.84v43h-4.84zm0-17.93a11.68 11.68 0 0 0-9.35-5c-6.26 0-10 5.16-10 12.06s3.74 12 10 12a11.58 11.58 0 0 0 9.35-4.9zM323.63 42.61c9.42 0 15 7.36 15 16.71v1.23h-25.26c.39 5.87 4.52 10.77 11.23 10.77a13.63 13.63 0 0 0 9.61-3.93l2.32 3.16a16.93 16.93 0 0 1-12.38 4.77c-9.23 0-15.87-6.64-15.87-16.38 0-9.04 6.45-16.33 15.35-16.33zM313.37 57h20.45c-.06-4.64-3.16-10.39-10.25-10.39-6.65 0-9.94 5.62-10.2 10.39zM345 43.39h5.22l10.38 25.55 10.32-25.55h5.29l-13 31.16H358zM398 42.61c9.42 0 15 7.36 15 16.71v1.23h-25.24c.39 5.87 4.52 10.77 11.23 10.77a13.65 13.65 0 0 0 9.61-3.93l2.32 3.16a17 17 0 0 1-12.39 4.77c-9.22 0-15.87-6.64-15.87-16.38 0-9.04 6.46-16.33 15.34-16.33zM387.76 57h20.45c-.06-4.64-3.16-10.39-10.26-10.39-6.64 0-9.95 5.62-10.19 10.39zM424 31.52h4.84v43H424zM440 58.94c0-9 5.94-16.33 15.42-16.33s15.42 7.29 15.42 16.33-5.93 16.38-15.42 16.38S440 68 440 58.94zm25.74 0c0-6.33-3.67-12-10.32-12S445 52.61 445 58.94 448.73 71 455.37 71s10.32-5.68 10.32-12.06zM481.89 86.42v-43h4.84V48a13 13 0 0 1 10.51-5.42c8.2 0 13.87 6.2 13.87 16.33s-5.67 16.38-13.87 16.38a12.75 12.75 0 0 1-10.51-5.48v16.61zM496 46.94a11.5 11.5 0 0 0-9.29 5V66a11.56 11.56 0 0 0 9.29 5c6.25 0 10-5.16 10-12.06s-3.73-12-10-12zM559.76 53.39c0-3.94-1.74-6.45-5.74-6.45-3.23 0-6.65 2.32-8.26 4.77v22.84h-4.84V53.39c0-3.94-1.68-6.45-5.74-6.45-3.16 0-6.52 2.32-8.19 4.83v22.78h-4.84V43.39H527v4.51a13.46 13.46 0 0 1 10.06-5.29c4.77 0 7.48 2.58 8.39 5.81a13.1 13.1 0 0 1 10.45-5.81c5.68 0 8.71 3.16 8.71 9.42v22.52h-4.84zM591.05 42.61c9.42 0 15 7.36 15 16.71v1.23h-25.26c.39 5.87 4.52 10.77 11.23 10.77a13.63 13.63 0 0 0 9.61-3.93l2.37 3.16a16.93 16.93 0 0 1-12.38 4.77c-9.23 0-15.87-6.64-15.87-16.38-.05-9.04 6.4-16.33 15.3-16.33zM580.79 57h20.45c-.06-4.64-3.16-10.39-10.25-10.39-6.65 0-9.94 5.62-10.2 10.39zM638.08 54.16c0-5.48-2.77-7.22-7-7.22a12 12 0 0 0-9.22 4.83v22.78h-4.84V43.39h4.84v4.51A15.45 15.45 0 0 1 633 42.61c6.52 0 9.94 3.29 9.94 10.07v21.87h-4.84zM656.79 68V47.65h-5.16v-4.26h5.16v-8.52h4.84v8.52H668v4.26h-6.32V67c0 2.32 1 4 3.16 4a4.65 4.65 0 0 0 3.29-1.29l1.42 3.61a7.91 7.91 0 0 1-5.81 2c-4.63 0-6.95-2.64-6.95-7.32z"/><path d="M681.24 79.64l2.29-.51a9.49 9.49 0 0 0 2.1-.74 7.4 7.4 0 0 0 1.74-1.23 5 5 0 0 0 1.23-2 3.82 3.82 0 0 1-3-1.58 4.87 4.87 0 0 1-.94-2.74 5.07 5.07 0 0 1 1.45-3.91 4.81 4.81 0 0 1 3.33-1.32 4.16 4.16 0 0 1 3.61 1.71 6.94 6.94 0 0 1 1.22 4.16 11.19 11.19 0 0 1-.74 3.9 12 12 0 0 1-2.26 3.81 13.58 13.58 0 0 1-3.77 3 14.69 14.69 0 0 1-5.35 1.65zm12.84-30.06a5.06 5.06 0 0 1-1.29 3.42 4.3 4.3 0 0 1-3.42 1.48 4.37 4.37 0 0 1-3.48-1.48 5.06 5.06 0 0 1-1.29-3.42 5.14 5.14 0 0 1 1.29-3.48 4.38 4.38 0 0 1 3.48-1.49 4.31 4.31 0 0 1 3.42 1.49 5.14 5.14 0 0 1 1.29 3.48z" fill="#ef434e"/></svg>